PathFileType	4	(X/Y/Z)	 s07c0202.trc
DataRate	CameraRate	NumFrames	NumMarkers	Units	OrigDataRate	OrigDataStartFrame	OrigNumFrames
200	200	6	48	mm	200	751	2000
Frame#	Time	racr			lacr			c7			jug			rlel			rdr			llel			ldr			s2			lic			ric			lasi			rasi			rpsi			lpsi			rgt			lgt			rth1			rth2			rth3			rth4			rlfc			rmfc			rsh1			rsh2			rsh3			rsh4			rlmal			rcal			rtoe			rmt5			lth1			lth2			lth4			lth3			llfc			lmfc			lsh1			lsh2			lsh3			lsh4			llmal			lcal			ltoe			lmt5			SBIKE			LBIKE			RBIKE			
		X1	Y1	Z1	X2	Y2	Z2	X3	Y3	Z3	X4	Y4	Z4	X5	Y5	Z5	X6	Y6	Z6	X7	Y7	Z7	X8	Y8	Z8	X9	Y9	Z9	X10	Y10	Z10	X11	Y11	Z11	X12	Y12	Z12	X13	Y13	Z13	X14	Y14	Z14	X15	Y15	Z15	X16	Y16	Z16	X17	Y17	Z17	X18	Y18	Z18	X19	Y19	Z19	X20	Y20	Z20	X21	Y21	Z21	X22	Y22	Z22	X23	Y23	Z23	X24	Y24	Z24	X25	Y25	Z25	X26	Y26	Z26	X27	Y27	Z27	X28	Y28	Z28	X29	Y29	Z29	X30	Y30	Z30	X31	Y31	Z31	X32	Y32	Z32	X33	Y33	Z33	X34	Y34	Z34	X35	Y35	Z35	X36	Y36	Z36	X37	Y37	Z37	X38	Y38	Z38	X39	Y39	Z39	X40	Y40	Z40	X41	Y41	Z41	X42	Y42	Z42	X43	Y43	Z43	X44	Y44	Z44	X45	Y45	Z45	X46	Y46	Z46	X47	Y47	Z47	X48	Y48	Z48	
751	3.7550	442.134182	1469.915162	-75.272439	446.496553	1451.339702	-347.576345	404.023782	1516.465649	-219.362368	367.948312	1367.840579	-214.480878	485.296834	1145.233961	66.956596	687.418970	947.108291	-40.666344	490.316797	1144.404683	-512.498716	696.482052	942.138192	-430.073172	-133.506468	1191.758590	-244.078985	21.952077	1267.902220	-376.302047	16.876111	1263.415191	-84.464071	60.387856	1198.382719	-347.321844	44.873674	1205.950387	-96.128848	-113.535138	1234.994792	-192.271535	-102.471231	1246.069671	-298.514672	-24.433651	1112.096271	-48.030825	1.646435	1111.160623	-410.143758	86.815937	985.025942	-38.954299	149.772494	923.815230	-47.354338	176.037069	842.324750	-49.256722	179.277852	943.140176	-60.672561	243.088941	723.704411	-78.898879	232.541970	706.515212	-179.410278	215.312025	582.797145	-50.957266	225.145505	496.011260	-70.523618	192.900155	415.022329	-67.083215	239.202093	498.154254	-108.255463	169.885983	274.054536	-70.542655	108.701604	225.159710	-99.420759	400.113315	250.568228	-120.003673	330.880960	202.086953	-48.791017	101.962218	1043.349892	-409.248455	188.899928	1028.042473	-404.675383	203.570675	1059.784138	-394.884406	257.379091	971.229801	-399.247323	392.126154	865.109638	-363.860301	377.580837	845.197134	-263.147245	279.447142	766.928161	-385.174403	230.391207	697.600033	-371.185413	148.789191	658.802573	-380.155659	235.790472	693.293056	-329.387515	42.780191	583.020419	-384.725626	-32.342595	596.721978	-351.707419	164.409224	384.531732	-355.376539	89.700496	423.731631	-415.461154	-259.391809	970.596116	-232.055176	-75.813539	83.574326	-438.096926	-82.776760	79.385145	-40.484269	
752	3.7600	445.071161	1470.270861	-79.182956	443.769885	1452.560390	-351.900322	404.129218	1517.490232	-222.005576	367.646119	1368.961059	-216.963962	487.178391	1146.611110	65.898859	687.891112	947.178523	-40.981840	489.026095	1144.197019	-512.094728	696.368790	942.499636	-429.735405	-132.889390	1192.561769	-239.674484	20.327322	1270.421256	-372.861766	19.611884	1262.656606	-80.791505	59.624003	1200.990745	-344.256445	46.868648	1204.902255	-92.949364	-112.452524	1235.481967	-187.329729	-103.070342	1247.360679	-292.976544	-23.336469	1110.793287	-45.824807	1.446895	1115.571333	-409.303572	84.555655	981.113322	-36.967825	145.995033	918.437202	-45.580384	169.964539	836.146035	-47.989645	175.986755	936.997822	-58.530669	235.377855	717.054834	-77.937331	224.281370	699.855594	-178.259753	207.715042	576.190477	-49.923500	217.897219	489.519518	-69.810080	185.894181	408.324719	-66.498785	231.876217	491.691538	-107.533143	163.534673	267.628918	-70.256818	101.867822	219.350201	-99.407895	393.503578	241.203028	-120.137222	323.719942	193.460903	-48.981275	103.285801	1049.227980	-407.947912	190.576168	1035.983281	-403.730162	204.535407	1067.988470	-393.793537	260.395149	980.666713	-398.868272	397.726238	877.012512	-364.159302	383.608602	856.970630	-263.625521	286.497407	776.962378	-385.275499	238.146879	707.119155	-371.633904	157.408263	667.641651	-380.251771	244.227214	703.556650	-330.223814	51.494866	591.294244	-385.458790	-23.218850	605.634131	-351.890691	171.942092	392.125633	-355.416646	97.459555	431.720158	-415.394632	-259.312517	970.644638	-231.769788	-75.815571	83.658973	-438.068501	-82.745972	79.340486	-40.459705	
753	3.7650	447.824942	1470.401568	-83.241807	440.653985	1453.519439	-355.917026	404.152653	1518.730905	-225.017622	366.341702	1370.530433	-219.824092	488.984539	1147.885607	64.820175	688.674949	947.516926	-41.489804	487.753602	1144.020332	-511.624418	696.175951	942.799402	-429.384878	-132.207481	1193.179230	-235.181468	18.066028	1272.417290	-367.836540	22.433213	1261.849330	-77.034524	58.840285	1203.455496	-341.301396	48.945066	1203.633992	-89.963537	-111.247830	1235.758493	-182.446530	-103.360209	1248.662387	-287.871396	-21.981601	1109.476016	-43.411827	1.325502	1119.705307	-407.788921	82.422694	977.314385	-34.977449	142.318060	913.169801	-43.769413	163.925333	830.445981	-46.874730	172.718752	931.481311	-55.298063	227.964385	710.678148	-77.152850	216.302139	693.767794	-177.368622	200.309907	569.835857	-49.240253	210.551969	483.186787	-69.250421	178.707642	402.048427	-66.052614	224.505261	485.623417	-107.014253	156.289903	261.337542	-70.271252	94.556531	214.042843	-99.405797	386.386997	232.215659	-120.198229	315.960718	185.515011	-48.954231	104.687428	1055.601669	-406.695894	192.256713	1044.355029	-402.769012	205.509202	1076.626929	-392.720182	263.373522	990.739412	-398.520649	403.479046	889.451311	-364.646336	389.508047	868.727606	-263.198977	294.078614	787.619850	-385.817442	246.133732	717.334474	-372.112625	166.066305	676.154702	-380.550548	252.382152	713.336868	-330.674770	61.455056	599.021931	-386.520986	-13.377946	614.178566	-351.728078	180.006521	399.190331	-355.306955	106.001350	439.128267	-415.773072	-259.208198	970.689438	-231.441934	-75.850864	83.744676	-438.049707	-82.767971	79.327677	-40.428351	
754	3.7700	450.402615	1470.398733	-87.329999	437.470056	1454.460831	-359.889091	403.994389	1519.734482	-227.656653	365.259168	1371.766530	-222.387806	490.669571	1148.901438	63.795448	689.325564	947.506642	-41.566974	486.462180	1143.877344	-511.265559	695.808163	943.368107	-429.276581	-131.564967	1193.683949	-230.838535	16.090537	1275.023136	-364.341099	25.358391	1260.301049	-73.780449	58.134737	1205.895779	-338.485614	51.148495	1202.347226	-87.183161	-110.204835	1236.050602	-177.453044	-103.582376	1249.873049	-282.882404	-20.591074	1108.105636	-41.189712	1.189471	1123.932515	-406.183117	80.442202	973.831433	-32.979222	138.766664	908.310445	-41.901218	158.500054	824.962140	-45.502738	169.588127	925.991932	-53.459454	220.826431	704.681702	-76.464574	208.520940	687.917039	-176.689088	193.109392	563.909057	-48.660143	203.185196	477.439845	-68.797567	171.365108	396.116978	-65.741185	217.064397	479.763854	-106.682382	148.688957	255.640941	-70.233767	86.804782	209.282337	-99.416537	378.625279	223.702829	-120.489259	307.726970	177.932814	-49.096115	105.971386	1062.134500	-405.427189	193.831094	1053.160183	-401.960423	206.289731	1085.499987	-391.591224	266.283215	1001.124068	-398.106358	409.225388	902.297718	-365.094549	395.371775	881.253870	-262.847091	302.016273	798.116820	-386.104976	254.913972	727.216309	-372.674647	175.725931	685.200208	-380.718023	261.185401	723.367247	-331.145988	72.197749	606.477416	-387.595511	-2.825409	622.328838	-351.730991	188.144232	404.825539	-354.055127	115.390888	446.705182	-416.245236	-259.108827	970.694434	-231.186301	-75.852016	83.802684	-438.022579	-82.732851	79.342255	-40.417288	
755	3.7750	452.783247	1470.322116	-91.359941	434.235774	1455.284738	-363.875013	403.670124	1520.686153	-230.175191	364.112723	1372.928457	-224.860882	492.209565	1149.902913	62.797564	690.251858	947.705557	-41.743651	485.179677	1143.741514	-510.790105	695.504782	943.608932	-429.001230	-130.753199	1194.466927	-228.238505	9.198411	1272.706624	-347.668510	28.320590	1258.993758	-70.638755	57.616081	1208.417585	-335.737100	53.344776	1201.084411	-84.474169	-109.273090	1236.244835	-172.486341	-103.815312	1250.918677	-277.972992	-19.152395	1106.716168	-39.059350	0.960752	1128.006903	-404.501205	78.751142	970.751236	-31.201735	135.545869	903.819077	-40.157550	153.410573	820.087344	-44.114960	166.689381	920.549436	-52.981303	214.044660	699.182383	-75.713276	201.081904	682.695533	-176.291595	186.078744	558.368045	-48.343412	195.953731	471.961043	-68.537571	163.901909	390.871301	-65.449950	209.650382	474.398319	-106.424211	140.761714	250.476785	-70.293911	78.657041	205.115852	-99.442272	370.447113	215.518808	-120.918890	298.798352	169.963746	-50.149260	107.066906	1068.794999	-404.208892	195.120469	1061.955636	-401.105165	206.800514	1094.545767	-390.349275	268.833553	1011.741766	-397.833315	414.972179	915.345033	-365.746010	401.839264	893.858709	-263.808620	310.359064	808.671294	-386.939207	263.967230	737.066689	-373.133000	185.384656	694.083043	-381.534395	270.186631	733.503023	-331.623588	83.561743	613.509535	-388.542335	8.175552	630.224635	-352.519185	197.553848	411.039907	-353.932625	124.703166	453.177483	-415.566579	-259.043679	970.735409	-231.044071	-75.679831	83.983167	-438.152625	-82.728658	79.356076	-40.407893	
756	3.7800	455.036250	1470.084728	-95.368824	430.936197	1455.991618	-367.696173	403.286332	1521.455933	-232.740956	362.937411	1373.906940	-227.327956	493.453984	1150.544368	61.472525	691.240211	948.014994	-41.905044	483.940581	1143.718224	-510.272105	695.291352	943.562717	-428.457153	-130.067979	1194.776820	-223.826240	7.219330	1275.099598	-344.347308	31.267849	1257.590024	-67.523988	57.183042	1210.677735	-333.159754	55.567352	1199.707081	-81.957635	-108.204006	1236.197985	-167.820937	-103.986224	1251.957122	-273.028445	-17.576127	1105.256588	-37.097390	0.643961	1132.098698	-402.809866	77.246604	967.935435	-29.473574	132.769729	899.695300	-38.546821	148.575680	815.788179	-42.710874	164.137355	915.737385	-51.513971	207.866546	694.090447	-75.444127	193.315634	678.366885	-175.647461	179.444359	553.476086	-48.014936	188.735714	467.203911	-68.472149	156.312081	386.055754	-65.357760	202.360946	469.511243	-106.328032	132.566530	245.713181	-70.539846	70.165813	201.594995	-99.484741	361.689389	208.025239	-121.330127	289.922641	164.660508	-49.419356	107.863995	1075.489590	-403.130280	196.070985	1070.806403	-400.291809	206.983536	1103.603123	-389.137194	271.013756	1022.299824	-397.796887	420.140122	928.513566	-366.065801	408.343035	906.037054	-264.918117	318.556318	819.159953	-387.303219	273.157802	746.977603	-373.410796	195.284947	702.789442	-382.078437	279.162026	743.604617	-331.891762	95.229474	619.959954	-389.347022	19.159248	637.205248	-352.657749	207.115547	416.423837	-353.520369	134.749001	459.036470	-415.071733	-258.956310	970.787777	-230.948842	-75.623748	84.103399	-438.201986	-82.537568	79.320028	-40.171701	
